<svg width="297" height="233" viewBox="0 0 297 233" fill="none" xmlns="http://www.w3.org/2000/svg">
<path d="M10 201V141.5C10 119.409 27.9086 101.5 50 101.5H247C269.091 101.5 287 119.409 287 141.5V201M10 201V232.5M10 201H238.5M287 201V232.5M287 201H238.5M238.5 226V213.5V201M55.5 226V201M23.5 112.5V60.5C23.5 32.8858 45.8858 10.5 73.5 10.5H150H224.5C252.114 10.5 274.5 32.8858 274.5 60.5V112" stroke="white" stroke-width="20"/>
<path d="M141 70H72C66.4772 70 62 74.4772 62 80V88C62 93.5228 66.4772 98 72 98H141C146.523 98 151 93.5228 151 88V80C151 74.4772 146.523 70 141 70Z" stroke="white" stroke-width="15"/>
<path d="M233 70H164C158.477 70 154 74.4772 154 80V88C154 93.5228 158.477 98 164 98H233C238.523 98 243 93.5228 243 88V80C243 74.4772 238.523 70 233 70Z" stroke="white" stroke-width="15"/>
</svg>
