<svg width="297" height="232" viewBox="0 0 297 232" fill="none" xmlns="http://www.w3.org/2000/svg">
<path d="M10 200.5V141C10 118.909 27.9086 101 50 101H247C269.091 101 287 118.909 287 141V200.5M10 200.5V232M10 200.5H243M287 200.5V232M287 200.5H243M243 225.5V200.5M52.5 225.5V200.5M23.5 112V60C23.5 32.3858 45.8858 10 73.5 10H150H224.5C252.114 10 274.5 32.3858 274.5 60V111.5" stroke="white" stroke-width="20"/>
<path d="M194 68H102C96.4772 68 92 72.4772 92 78V86C92 91.5228 96.4772 96 102 96H194C199.523 96 204 91.5228 204 86V78C204 72.4772 199.523 68 194 68Z" stroke="white" stroke-width="15"/>
</svg>
