<svg width="407" height="652" viewBox="0 0 407 652" fill="none" xmlns="http://www.w3.org/2000/svg">
<path d="M74.5 231L39.6348 204.008C32.2959 198.326 28 189.567 28 180.286V67C28 50.4315 41.4315 37 58 37H346.5C363.069 37 376.5 50.4315 376.5 67V181.751C376.5 190.191 372.945 198.24 366.708 203.924L337 231" stroke="white" stroke-width="50"/>
<path d="M87 309.5L84.6594 299.266C69.4084 232.58 69.0849 163.348 83.7119 96.5222L85.5846 87.9666C86.4936 83.8136 88.9566 80.1656 92.4689 77.7702L94.5107 76.3776C161.912 30.4094 250.723 30.9374 317.573 77.7037V77.7037C321.054 80.1385 323.45 83.832 324.256 88.0026L326.284 98.5047C338.972 164.201 338.691 231.744 325.456 297.332L323 309.5" stroke="white" stroke-width="50"/>
<path d="M382 448.191V315L263.699 303.07C223.668 299.034 183.332 299.034 143.301 303.07L25 315V448.191C25 452.391 27.7303 456.104 31.7399 457.356C143.583 492.287 263.417 492.287 375.26 457.356C379.27 456.104 382 452.391 382 448.191Z" stroke="white" stroke-width="50"/>
<path d="M81.5 471L104.256 605.557C104.415 606.499 104.845 607.373 105.494 608.074V608.074C116.655 620.14 132.345 627 148.781 627H244.958C265.426 627 285.668 622.718 304.383 614.43V614.43C308.464 612.623 311.236 608.736 311.616 604.289L323 471" stroke="white" stroke-width="50"/>
</svg>
